<svg width="20" height="20" viewBox="0 0 20 20" fill="none" xmlns="http://www.w3.org/2000/svg">
<path d="M7.7583 12.25L9.0083 13.5L12.3416 10.1667" stroke="#172B4C" stroke-linecap="round" stroke-linejoin="round"/>
<path d="M8.33317 5.00002H11.6665C13.3332 5.00002 13.3332 4.16669 13.3332 3.33335C13.3332 1.66669 12.4998 1.66669 11.6665 1.66669H8.33317C7.49984 1.66669 6.6665 1.66669 6.6665 3.33335C6.6665 5.00002 7.49984 5.00002 8.33317 5.00002Z" stroke="#172B4C" stroke-miterlimit="10" stroke-linecap="round" stroke-linejoin="round"/>
<path d="M13.3333 3.34998C16.1083 3.49998 17.5 4.52498 17.5 8.33331V13.3333C17.5 16.6666 16.6667 18.3333 12.5 18.3333H7.5C3.33333 18.3333 2.5 16.6666 2.5 13.3333V8.33331C2.5 4.53331 3.89167 3.49998 6.66667 3.34998" stroke="#172B4C" stroke-miterlimit="10" stroke-linecap="round" stroke-linejoin="round"/>
</svg>
