<svg width="20" height="20" viewBox="0 0 20 20" fill="none" xmlns="http://www.w3.org/2000/svg">
<path d="M4.16666 8.33335H5.83333C7.5 8.33335 8.33333 7.50002 8.33333 5.83335V4.16669C8.33333 2.50002 7.5 1.66669 5.83333 1.66669H4.16666C2.5 1.66669 1.66666 2.50002 1.66666 4.16669V5.83335C1.66666 7.50002 2.5 8.33335 4.16666 8.33335Z" stroke="#F89521" stroke-miterlimit="10" stroke-linecap="round" stroke-linejoin="round"/>
<path d="M14.1667 8.33335H15.8333C17.5 8.33335 18.3333 7.50002 18.3333 5.83335V4.16669C18.3333 2.50002 17.5 1.66669 15.8333 1.66669H14.1667C12.5 1.66669 11.6667 2.50002 11.6667 4.16669V5.83335C11.6667 7.50002 12.5 8.33335 14.1667 8.33335Z" stroke="#F89521" stroke-miterlimit="10" stroke-linecap="round" stroke-linejoin="round"/>
<path d="M14.1667 18.3334H15.8333C17.5 18.3334 18.3333 17.5 18.3333 15.8334V14.1667C18.3333 12.5 17.5 11.6667 15.8333 11.6667H14.1667C12.5 11.6667 11.6667 12.5 11.6667 14.1667V15.8334C11.6667 17.5 12.5 18.3334 14.1667 18.3334Z" stroke="#F89521" stroke-miterlimit="10" stroke-linecap="round" stroke-linejoin="round"/>
<path d="M4.16666 18.3334H5.83333C7.5 18.3334 8.33333 17.5 8.33333 15.8334V14.1667C8.33333 12.5 7.5 11.6667 5.83333 11.6667H4.16666C2.5 11.6667 1.66666 12.5 1.66666 14.1667V15.8334C1.66666 17.5 2.5 18.3334 4.16666 18.3334Z" stroke="#F89521" stroke-miterlimit="10" stroke-linecap="round" stroke-linejoin="round"/>
</svg>
